<?xml version="1.0" encoding="UTF-8"?>
<svg id="Layer_1" xmlns="http://www.w3.org/2000/svg" version="1.1" viewBox="0 0 20.25 17.92">
  <!-- Generator: Adobe Illustrator 29.8.3, SVG Export Plug-In . SVG Version: 2.1.1 Build 3)  -->
  <defs>
    <style>
      .st0 {
        fill: #f9f9f9;
      }
    </style>
  </defs>
  <path class="st0" d="M.25,11.04c0-2.44,3.95-2.04,5.73-1.97.81-2.45,2.81-2.64,5.12-2.47,1.26.1,2.19.54,2.89,1.64.15.24.19.76.23.8.17.15,3.27-.14,4.2.23.49.2,1.62,1.31,1.62,1.77v6.6l-.28.28-.28-.28v-6.22c-.01-.48-.63-1.81-1.6-1.79h-3.49s0,5.37,0,5.37c0,.54-.82,1.18-1.41,1.23-1.22.11-1.84-.4-1.98-1.6-.27-2.28-.19-5.3,2.64-5.66-.57-1.29-1.37-1.69-2.72-1.8-1.78-.14-3.5-.04-4.25,1.8,2.84.36,2.91,3.38,2.64,5.66-.16,1.34-1.01,1.86-2.32,1.56-.42-.09-1.08-.87-1.08-1.18v-5.37h-3.49c-1.61.34-1.6,1.38-1.6,1.79v6.22l-.28.28-.28-.28v-6.6ZM6.46,9.63v4.99c0,1.13,1.97,1.79,2.24-.21.25-1.84.15-4.69-2.24-4.79ZM13.81,9.63c-2.4.09-2.5,2.95-2.24,4.79.28,2,2.24,1.33,2.24.21v-4.99Z"/>
  <path class="st0" d="M3.78,2.89c4.42-.92,4.26,5.92-.14,4.77-2.28-.6-2.19-4.28.14-4.77ZM3.96,3.45c-2.15.48-1.61,4.29,1.05,3.69,2.28-.52,1.6-4.29-1.05-3.69Z"/>
  <path class="st0" d="M14.89,2.89c4.18-.96,4.74,5.16.52,4.87-2.77-.19-2.74-4.36-.52-4.87ZM15.27,3.45c-1.93.44-1.81,3.43.16,3.72,3.04.45,2.88-4.41-.16-3.72Z"/>
  <path class="st0" d="M10,.44c3.14-.17,3.64,4.57.69,5.03-3.88.6-4.04-4.85-.69-5.03ZM9.61,1.19c-2.29.52-1.6,4.29,1.05,3.69,2.29-.52,1.6-4.29-1.05-3.69Z"/>
</svg>