<?xml version="1.0" encoding="UTF-8"?>
<svg id="Layer_1" xmlns="http://www.w3.org/2000/svg" version="1.1" viewBox="0 0 265.43 265.43">
  <!-- Generator: Adobe Illustrator 29.8.3, SVG Export Plug-In . SVG Version: 2.1.1 Build 3)  -->
  <defs>
    <style>
      .st0 {
        fill: #fff;
      }
    </style>
  </defs>
  <rect class="st0" width="265.43" height="265.43" rx="33.19" ry="33.19"/>
  <path d="M208.36,208.52h-30.12v-59.78c0-.46-1.3-5.78-1.61-6.61-5.7-15.41-25.51-14.17-32.65-.27-.52,1.02-3.16,7.37-3.16,7.79v58.87h-30.12v-99.94l1.37-1.37h28.75l.92,12.78c3.11-2.58,5.02-6.05,8.28-8.59,16.9-13.14,45.11-7.5,54.22,12.24.66,1.44,4.11,11.5,4.11,12.32v72.56Z"/>
  <rect x="59.59" y="107.21" width="30.12" height="101.31"/>
  <path d="M71.22,57.24c24.26-4.08,28.86,31.41,6.87,35.15-24.13,4.11-28.9-31.45-6.87-35.15Z"/>
</svg>