<?xml version="1.0" encoding="UTF-8"?>
<svg id="Layer_1" xmlns="http://www.w3.org/2000/svg" version="1.1" viewBox="0 0 265.43 265.43">
  <!-- Generator: Adobe Illustrator 29.8.3, SVG Export Plug-In . SVG Version: 2.1.1 Build 3)  -->
  <defs>
    <style>
      .st0 {
        fill: #fff;
      }
    </style>
  </defs>
  <rect class="st0" width="265.43" height="265.43" rx="33.19" ry="33.19"/>
  <rect class="st0" x="174.48" y="83.23" width="43.57" height="14.81"/>
  <g>
    <path d="M27.51,63.49c20.98.66,42.49-.87,63.42-.02,5.2.21,12.03.65,17.08,1.8,26.7,6.07,36.44,38.78,15.54,57.31l-7.56,5.11c27.08,6.28,32.92,38.93,15.92,58.82-13.45,15.74-32.24,12.06-50.7,13.5l-53.7-.02V63.49ZM55.02,117.44h37.5c2.86,0,8.89-2.58,11-4.64,6.55-6.38,5.83-19.84-2.81-24.05-1.02-.5-5.72-2.06-6.57-2.06h-39.12v30.75ZM55.02,176.79c11.14-.41,22.64.53,33.74.02,13.22-.61,24.87-3.07,24.01-19.2-.74-13.95-12.33-16.37-24.01-16.99-11.05-.59-22.64.48-33.74.02v36.15Z"/>
    <path d="M237.92,157.91h-65.28c-.54,14.36,9.14,26.36,24.41,24.14,6.99-1.02,11.67-7.27,12.82-13.89l26.37,5.05c-7.88,23.06-29.35,31.63-52.47,28.34-34.13-4.87-44.23-40.6-35.79-70.19,12.49-43.75,75.07-43.65,86.99.11,2.33,8.55,2.78,17.61,2.96,26.44ZM211.49,141.72c.57-14.55-11.07-26.95-26.05-21.46-9.09,3.33-12.37,12.43-12.8,21.46h38.85Z"/>
    <path class="st0" d="M55.02,176.79v-36.15c11.11.46,22.69-.61,33.74-.02,11.68.62,23.27,3.04,24.01,16.99.86,16.13-10.79,18.59-24.01,19.2-11.1.51-22.61-.43-33.74-.02Z"/>
    <path class="st0" d="M55.02,117.44v-30.75h39.12c.85,0,5.55,1.57,6.57,2.06,8.64,4.21,9.36,17.67,2.81,24.05-2.12,2.06-8.14,4.64-11,4.64h-37.5Z"/>
    <path class="st0" d="M211.49,141.72h-38.85c.43-9.03,3.71-18.13,12.8-21.46,14.98-5.49,26.62,6.91,26.05,21.46Z"/>
  </g>
</svg>